<svg width="29" height="29" viewBox="0 0 29 29" fill="none" xmlns="http://www.w3.org/2000/svg">
<path d="M24.2946 4.57135L24.2964 4.57313C26.9139 7.19062 28.3549 10.6738 28.3549 14.384C28.3549 22.0249 22.1263 28.2535 14.4855 28.2535C12.1628 28.2535 9.88145 27.6658 7.85169 26.5599L7.67737 26.465L7.48537 26.5154L0.70985 28.2964L2.51242 21.6784L2.56693 21.4783L2.46376 21.2983C1.25973 19.1983 0.616 16.8189 0.616 14.3695C0.616 6.72871 6.84462 0.500086 14.4855 0.500089L14.4872 0.500083C16.3103 0.493732 18.1165 0.850456 19.8003 1.54945C21.4841 2.24844 23.0119 3.27571 24.2946 4.57135ZM8.13822 25.0788L8.14122 25.0805C10.0591 26.2132 12.2493 26.8175 14.4855 26.8175C21.3427 26.8175 26.9335 21.245 26.9044 14.3839C26.9103 12.7483 26.5915 11.1277 25.9666 9.61601C25.3417 8.10422 24.423 6.73146 23.2637 5.57726C20.9223 3.2212 17.7935 1.92158 14.471 1.92158C7.61183 1.92158 2.02299 7.51042 2.02299 14.3695L2.02299 14.3699C2.02471 16.71 2.68421 19.0026 3.92622 20.9859L3.92618 20.9859L3.92984 20.9916L4.09887 21.2536L2.95414 25.4463L2.72606 26.2817L3.56358 26.0616L7.88385 24.9261L8.13822 25.0788ZM10.5402 13.8453L10.5439 13.8519L10.5477 13.8583C10.7687 14.2266 11.5114 15.4574 12.6447 16.4682C13.8771 17.5695 14.972 18.0382 15.4606 18.2473C15.5352 18.2793 15.5956 18.3051 15.6403 18.3263C15.8531 18.436 16.1032 18.526 16.3718 18.4948C16.6641 18.4609 16.875 18.2979 17.0267 18.1156C17.2335 17.8789 17.921 17.0608 18.1872 16.6708C18.2033 16.6484 18.216 16.6335 18.2251 16.6239C18.2309 16.6249 18.2379 16.6263 18.2463 16.6282C18.2862 16.6371 18.3363 16.6527 18.4112 16.6786C18.6569 16.7817 19.6548 17.2679 20.3096 17.5868C20.5381 17.6981 20.7247 17.7891 20.8231 17.8363C20.8986 17.8725 20.9691 17.905 21.0299 17.9331C21.0455 17.9403 21.0604 17.9471 21.0746 17.9537C21.1477 17.9876 21.2006 18.0127 21.2431 18.0353C21.2567 18.0426 21.2679 18.0489 21.277 18.0543C21.2832 18.1204 21.2843 18.2201 21.2734 18.3497C21.2518 18.6078 21.1853 18.9525 21.0478 19.3323L21.0477 19.3323L21.0452 19.3395C20.9572 19.5947 20.6481 19.9196 20.1891 20.2147C19.7432 20.5013 19.2794 20.6811 19.0258 20.7185C18.4371 20.8006 17.7403 20.8349 16.9877 20.5926L16.9877 20.5925L16.9806 20.5903C16.4692 20.4341 15.8225 20.2232 14.9916 19.857L14.988 19.8554C11.6943 18.4344 9.45772 15.1752 9.1022 14.6571C9.08571 14.6331 9.07327 14.615 9.06496 14.6032L9.0608 14.5973L9.05647 14.5915L9.05375 14.5879C8.96741 14.4728 8.62583 14.0175 8.30475 13.3855C7.97656 12.7394 7.69198 11.9514 7.69198 11.1796C7.69198 9.74338 8.36742 9.00072 8.72775 8.60454C8.75758 8.57173 8.78525 8.54131 8.8102 8.51306C9.03324 8.27266 9.26647 8.22856 9.39597 8.22856H10.0777C10.1108 8.23025 10.1425 8.2306 10.1639 8.23085C10.1665 8.23088 10.1689 8.2309 10.1712 8.23093C10.201 8.2313 10.2179 8.23174 10.2326 8.23284C10.2455 8.2338 10.252 8.23502 10.2546 8.23567C10.2687 8.24495 10.3419 8.30415 10.4411 8.54126C10.7265 9.25464 11.4599 11.0459 11.5588 11.2437C11.5885 11.3032 11.5972 11.3367 11.5993 11.357C11.6006 11.3692 11.6015 11.3888 11.5845 11.4264C11.5768 11.4418 11.5694 11.4567 11.5622 11.4711C11.4591 11.6779 11.4105 11.7754 11.2928 11.9127C11.2216 11.9957 11.1549 12.0765 11.0921 12.1525C10.9767 12.2922 10.8746 12.4158 10.7824 12.508C10.7792 12.5112 10.7758 12.5146 10.7723 12.5181C10.6862 12.6039 10.5209 12.7687 10.4389 12.9969C10.3373 13.2795 10.3854 13.5688 10.5402 13.8453ZM10.2521 8.23426C10.2522 8.23421 10.2529 8.23455 10.2542 8.23541C10.2528 8.23474 10.2521 8.23431 10.2521 8.23426Z" fill="white" stroke="white"/>
</svg>
